<svg xmlns="http://www.w3.org/2000/svg" viewBox="0 0 1200 630">
  <defs>
    <linearGradient id="bg" x1="0%" y1="0%" x2="100%" y2="100%">
      <stop offset="0%" style="stop-color:#0d0d0d"/>
      <stop offset="100%" style="stop-color:#1a1a2e"/>
    </linearGradient>
  </defs>
  <rect width="1200" height="630" fill="url(#bg)"/>
  <rect x="100" y="140" width="440" height="320" rx="20" fill="none" stroke="#666" stroke-width="2" opacity="0.5"/>
  <text x="320" y="200" text-anchor="middle" fill="#999" font-family="sans-serif" font-size="24" font-weight="bold">WordPress</text>
  <rect x="140" y="230" width="360" height="20" rx="4" fill="#333"/>
  <rect x="140" y="230" width="250" height="20" rx="4" fill="#666" opacity="0.6"/>
  <rect x="140" y="270" width="360" height="20" rx="4" fill="#333"/>
  <rect x="140" y="270" width="300" height="20" rx="4" fill="#666" opacity="0.6"/>
  <rect x="140" y="310" width="360" height="20" rx="4" fill="#333"/>
  <rect x="140" y="310" width="200" height="20" rx="4" fill="#666" opacity="0.6"/>
  <text x="320" y="400" text-anchor="middle" fill="#666" font-family="sans-serif" font-size="16">Templates &amp; Plugins</text>
  <text x="600" y="315" text-anchor="middle" fill="#a3e635" font-family="sans-serif" font-size="32" font-weight="bold">VS</text>
  <rect x="660" y="140" width="440" height="320" rx="20" fill="none" stroke="#a3e635" stroke-width="2" opacity="0.5"/>
  <text x="880" y="200" text-anchor="middle" fill="#a3e635" font-family="sans-serif" font-size="24" font-weight="bold">Custom Dev</text>
  <rect x="700" y="230" width="360" height="20" rx="4" fill="#1a2e1a"/>
  <rect x="700" y="230" width="340" height="20" rx="4" fill="#a3e635" opacity="0.3"/>
  <rect x="700" y="270" width="360" height="20" rx="4" fill="#1a2e1a"/>
  <rect x="700" y="270" width="360" height="20" rx="4" fill="#a3e635" opacity="0.3"/>
  <rect x="700" y="310" width="360" height="20" rx="4" fill="#1a2e1a"/>
  <rect x="700" y="310" width="320" height="20" rx="4" fill="#a3e635" opacity="0.3"/>
  <text x="880" y="400" text-anchor="middle" fill="#a3e635" font-family="sans-serif" font-size="16" opacity="0.7">Full Control &amp; Performance</text>
  <text x="600" y="540" text-anchor="middle" fill="#ffffff" font-family="sans-serif" font-size="28" font-weight="bold" opacity="0.8">WordPress vs Custom Development</text>
</svg>