<svg width="1200" height="700" viewBox="0 0 1200 700" fill="none" xmlns="http://www.w3.org/2000/svg">
  <rect width="1200" height="700" fill="#0F1318"/>
  <rect x="50" y="50" width="1100" height="600" rx="18" fill="#11141A" stroke="#2A313B"/>
  <text x="90" y="110" fill="#A3E635" font-family="Arial, sans-serif" font-size="28" font-weight="700">Anonymized Ops Dashboard</text>
  <text x="90" y="145" fill="#93A1B2" font-family="Arial, sans-serif" font-size="18">Client KPI Snapshot (30-day window)</text>

  <rect x="90" y="190" width="240" height="110" rx="12" fill="#151B23" stroke="#303A47"/>
  <rect x="360" y="190" width="240" height="110" rx="12" fill="#151B23" stroke="#303A47"/>
  <rect x="630" y="190" width="240" height="110" rx="12" fill="#151B23" stroke="#303A47"/>
  <rect x="900" y="190" width="210" height="110" rx="12" fill="#151B23" stroke="#303A47"/>

  <text x="120" y="230" fill="#93A1B2" font-family="Arial, sans-serif" font-size="16">First Response</text>
  <text x="120" y="268" fill="#CDE88C" font-family="Arial, sans-serif" font-size="30" font-weight="700">52s</text>

  <text x="390" y="230" fill="#93A1B2" font-family="Arial, sans-serif" font-size="16">Onboarding Time</text>
  <text x="390" y="268" fill="#CDE88C" font-family="Arial, sans-serif" font-size="30" font-weight="700">17m</text>

  <text x="660" y="230" fill="#93A1B2" font-family="Arial, sans-serif" font-size="16">Reporting Time</text>
  <text x="660" y="268" fill="#CDE88C" font-family="Arial, sans-serif" font-size="30" font-weight="700">2.1h/wk</text>

  <text x="930" y="230" fill="#93A1B2" font-family="Arial, sans-serif" font-size="16">Hours Saved</text>
  <text x="930" y="268" fill="#CDE88C" font-family="Arial, sans-serif" font-size="30" font-weight="700">42.3</text>

  <rect x="90" y="340" width="680" height="260" rx="12" fill="#0F1318" stroke="#2A313B"/>
  <text x="120" y="380" fill="#93A1B2" font-family="Arial, sans-serif" font-size="16">Volume by Day (anonymized)</text>
  <polyline points="130,540 190,510 250,520 310,470 370,490 430,440 490,450 550,420 610,430 670,395 730,410" stroke="#A3E635" stroke-width="4" fill="none"/>
  <polyline points="130,560 190,550 250,540 310,520 370,535 430,510 490,500 550,490 610,480 670,470 730,460" stroke="#4B5563" stroke-width="3" fill="none"/>

  <rect x="800" y="340" width="310" height="260" rx="12" fill="#0F1318" stroke="#2A313B"/>
  <text x="830" y="380" fill="#93A1B2" font-family="Arial, sans-serif" font-size="16">Automation Coverage</text>
  <rect x="830" y="420" width="250" height="18" rx="9" fill="#1E2937"/>
  <rect x="830" y="420" width="205" height="18" rx="9" fill="#A3E635"/>
  <text x="830" y="458" fill="#C9D5E2" font-family="Arial, sans-serif" font-size="14">Lead handling</text>

  <rect x="830" y="482" width="250" height="18" rx="9" fill="#1E2937"/>
  <rect x="830" y="482" width="188" height="18" rx="9" fill="#A3E635"/>
  <text x="830" y="520" fill="#C9D5E2" font-family="Arial, sans-serif" font-size="14">Onboarding</text>

  <rect x="830" y="544" width="250" height="18" rx="9" fill="#1E2937"/>
  <rect x="830" y="544" width="171" height="18" rx="9" fill="#A3E635"/>
  <text x="830" y="582" fill="#C9D5E2" font-family="Arial, sans-serif" font-size="14">Reporting</text>
</svg>
